<?xml version="1.0" encoding="UTF-8" standalone="no"?>
<svg
   xmlns:dc="http://purl.org/dc/elements/1.1/"
   xmlns:cc="http://creativecommons.org/ns#"
   xmlns:rdf="http://www.w3.org/1999/02/22-rdf-syntax-ns#"
   xmlns:svg="http://www.w3.org/2000/svg"
   xmlns="http://www.w3.org/2000/svg"
   xmlns:sodipodi="http://sodipodi.sourceforge.net/DTD/sodipodi-0.dtd"
   xmlns:inkscape="http://www.inkscape.org/namespaces/inkscape"
   inkscape:version="1.0 (1.0+r73+1)"
   sodipodi:docname="cofre.svg"
   viewBox="0 0 440.97434 411.63489"
   height="411.63489"
   width="440.97433"
   id="svg2"
   version="1.1">
  <metadata
     id="metadata8">
    <rdf:RDF>
      <cc:Work
         rdf:about="">
        <dc:format>image/svg+xml</dc:format>
        <dc:type
           rdf:resource="http://purl.org/dc/dcmitype/StillImage" />
        <dc:title></dc:title>
      </cc:Work>
    </rdf:RDF>
  </metadata>
  <defs
     id="defs6">
    <filter
       height="1.168999"
       y="-0.084499493"
       width="1.1560009"
       x="-0.078000434"
       id="filter1102"
       style="color-interpolation-filters:sRGB"
       inkscape:collect="always">
      <feGaussianBlur
         id="feGaussianBlur1104"
         stdDeviation="12.397694"
         inkscape:collect="always" />
    </filter>
  </defs>
  <sodipodi:namedview
     fit-margin-bottom="0"
     fit-margin-right="0"
     fit-margin-left="0"
     fit-margin-top="0"
     inkscape:current-layer="g10"
     inkscape:window-maximized="1"
     inkscape:window-y="24"
     inkscape:window-x="0"
     inkscape:cy="243.00849"
     inkscape:cx="56.160906"
     inkscape:zoom="0.58377771"
     showgrid="false"
     id="namedview4"
     inkscape:window-height="1056"
     inkscape:window-width="1920"
     inkscape:pageshadow="2"
     inkscape:pageopacity="0"
     guidetolerance="10"
     gridtolerance="10"
     objecttolerance="10"
     borderopacity="1"
     bordercolor="#666666"
     pagecolor="#ffffff" />
  <g
     transform="translate(14.603183,13.419621)"
     id="g10"
     inkscape:label="Image"
     inkscape:groupmode="layer">
    <g
       id="g1108">
      <path
         id="path837-3"
         d="M 44.624153,351.95688 V 335.45294 H 59.23832 73.85249 v 16.50394 16.50394 H 59.23832 44.624153 Z m 295.055107,0 v -16.50394 h 14.74016 14.74016 v 16.50394 16.50394 H 354.41942 339.67926 Z M 26.482413,313.50707 c -5.379529,-1.05023 -9.68366,-5.2062 -10.948239,-10.57139 -0.34007,-1.4428 -0.38289,-16.87 -0.38289,-137.93943 0,-119.151704 0.0467,-136.513062 0.37099,-137.888416 1.169869,-4.961703 4.79861,-8.768957 9.826289,-10.309694 1.46155,-0.447895 7.4627,-0.463295 180.535427,-0.463295 173.07273,0 179.07386,0.0154 180.53543,0.463295 4.95992,1.519971 8.66925,5.400863 9.81735,10.271347 0.33615,1.426054 0.37992,17.321994 0.37992,137.926763 0,121.06943 -0.0428,136.49663 -0.3829,137.93943 -1.23411,5.23598 -5.44977,9.37998 -10.66721,10.48592 -1.42158,0.30133 -27.87807,0.34988 -179.80857,0.33008 -101.20257,-0.0131 -178.631447,-0.11886 -179.275597,-0.24461 z M 331.3643,281.97606 c 5.34995,-1.36829 9.56463,-3.69626 13.10912,-7.24077 4.97819,-4.97819 7.79981,-11.79115 7.80326,-18.8414 v -2.07874 l 5.10236,-0.004 c 5.827,-0.005 7.74279,-0.2978 10.25285,-1.56698 3.21945,-1.62789 6.05536,-5.3676 6.79509,-8.96074 0.38408,-1.86553 0.38269,-45.86732 -0.003,-47.72322 -0.75447,-3.6447 -3.53605,-7.31361 -6.79357,-8.96074 -2.51006,-1.26918 -4.42586,-1.56198 -10.25286,-1.56698 l -5.10034,-0.004 v -20.53543 -20.53545 h 5.49037 c 5.98274,0 7.34072,-0.20031 9.87583,-1.45679 1.90052,-0.94196 4.53425,-3.58373 5.51589,-5.53274 1.56908,-3.1154 1.53529,-2.51891 1.53938,-27.18078 0.003,-14.150308 -0.0909,-22.955707 -0.25207,-23.811027 -0.89827,-4.766153 -5.13807,-9.200962 -9.82995,-10.282098 -0.61977,-0.142814 -3.64969,-0.262431 -6.73315,-0.265817 l -5.6063,-0.0062 v -1.730774 c 0,-0.951927 -0.17303,-2.737753 -0.38453,-3.968504 -2.01948,-11.752443 -11.24719,-20.56616 -23.04194,-22.008186 -2.98641,-0.36512 -242.9618,-0.36392 -245.93447,0.0013 -6.05462,0.743723 -11.7428,3.562167 -15.96027,7.908173 -3.804,3.919939 -6.45715,9.304191 -7.1935,14.598339 -0.38194,2.746071 -0.38494,186.767864 -0.003,189.559424 0.14829,1.08404 0.67673,3.20327 1.17433,4.70937 3.09909,9.3802 11.44221,16.31496 21.38025,17.77118 0.82851,0.1214 56.11503,0.19951 124.4514,0.17583 113.7281,-0.0394 123.08362,-0.0741 124.59843,-0.46148 z M 83.41503,267.07809 c -3.00599,-0.64746 -6.18507,-3.03471 -7.51634,-5.64419 -1.36268,-2.67107 -1.28254,3.33104 -1.28657,-96.36225 -0.003,-66.79186 0.0735,-92.512457 0.27712,-93.48031 0.97195,-4.621088 4.71205,-8.100039 9.41994,-8.762215 2.42205,-0.340666 240.72756,-0.340666 243.14961,0 5.69847,0.801502 9.70079,5.548084 9.70079,11.504751 v 1.087581 l -5.48032,0.003 c -5.98745,0.0033 -6.96234,0.151342 -9.51181,1.444701 -2.98411,1.51386 -5.32361,4.24766 -6.46629,7.556092 l -0.58883,1.704869 v 23.559061 23.55903 l 0.58883,1.70488 c 1.1238,3.25377 3.35279,5.87542 6.36084,7.48134 2.45702,1.31175 3.804,1.52244 9.73319,1.52244 h 5.36439 v 20.53545 20.53543 l -4.72441,0.002 c -5.87684,0.002 -7.43884,0.23601 -10.0249,1.49951 -3.71517,1.81515 -6.5257,5.57732 -7.16064,9.5852 -0.35255,2.22538 -0.35255,44.38879 0,46.61417 0.63494,4.00787 3.44547,7.77004 7.16064,9.5852 2.58606,1.2635 4.14806,1.49714 10.0249,1.49951 l 4.72441,0.002 -0.004,1.5748 c -0.003,0.86614 -0.16794,2.34676 -0.36785,3.29028 -0.90558,4.27374 -4.42724,7.65861 -8.80792,8.46574 -2.24476,0.41361 -242.63877,0.34686 -244.5644,-0.0679 z m 129.79415,-60.61457 c 5.72686,-0.97906 12.03041,-3.59878 16.86379,-7.00851 3.46236,-2.44254 8.28854,-7.36057 10.54734,-10.74807 5.29998,-7.94835 7.56723,-15.73045 7.27498,-24.97053 -0.2099,-6.63623 -1.40829,-11.41825 -4.35694,-17.38582 -8.49221,-17.18683 -27.46775,-26.42514 -46.27315,-22.52828 -14.52104,3.00905 -26.81798,14.01504 -31.42073,28.12211 -2.45704,7.53062 -2.68567,16.33021 -0.62338,23.99182 3.08967,11.47838 11.20847,21.38744 21.89125,26.71843 8.15864,4.07137 17.00711,5.36281 26.09684,3.80885 z m -13.24645,-13.36697 c -5.94611,-1.28587 -10.60751,-3.90581 -14.87882,-8.36263 -3.77058,-3.93434 -6.07209,-8.2896 -7.33777,-13.88562 -0.51639,-2.28314 -0.58906,-8.95398 -0.12139,-11.14338 0.17761,-0.8315 0.61519,-2.4189 0.9724,-3.52756 2.81648,-8.74138 9.68685,-15.61181 18.46794,-18.46808 7.40297,-2.40801 16.36822,-1.48214 23.05512,2.38096 14.73876,8.51477 18.90794,27.46463 9.14854,41.58211 -1.57715,2.28142 -5.17899,5.7698 -7.52339,7.28639 -2.58325,1.67109 -5.6897,3.06164 -8.50243,3.80597 -3.41618,0.90402 -9.88669,1.06571 -13.2802,0.33184 z m 10.20472,-8.20293 c 3.5837,-0.82853 6.74392,-2.48042 9.39507,-4.91092 2.90808,-2.66605 4.69537,-5.55106 5.88015,-9.49165 0.89471,-2.97581 0.94646,-7.46137 0.12153,-10.53417 -1.5495,-5.77172 -5.41853,-10.49972 -10.73533,-13.11865 -3.32227,-1.63648 -4.91595,-1.99126 -8.94488,-1.99126 -4.02963,0 -5.62362,0.35496 -8.94488,1.99192 -5.23663,2.58098 -8.89688,6.937 -10.59928,12.61406 -0.57506,1.91766 -0.6825,2.7539 -0.69599,5.41732 -0.0169,3.33465 0.28623,4.98134 1.44525,7.85078 1.00536,2.48901 2.19569,4.25535 4.30671,6.39074 3.06711,3.10253 5.75447,4.65736 9.82677,5.68552 2.24919,0.56787 6.69804,0.61577 8.94488,0.0963 z m -6.04724,-6.19619 c -5.6126,-0.59456 -10.3653,-4.88464 -11.70415,-10.5649 -1.69201,-7.17862 2.77329,-14.58659 9.94228,-16.49431 1.77564,-0.47251 5.27566,-0.47251 7.0513,0 2.23439,0.59459 4.50762,1.89709 6.15794,3.52834 5.44119,5.37832 5.50562,14.16804 0.14318,19.53048 -3.16036,3.16036 -7.00243,4.48642 -11.59055,4.00039 z m -95.22683,14.24021 c 1.02094,-0.30219 1.69768,-0.7342 2.66428,-1.70079 1.93081,-1.93081 2.10586,-2.74398 2.10586,-9.78239 v -5.74954 h 12.25423 c 8.57106,0 12.54759,-0.0879 13.23026,-0.29243 1.3041,-0.39072 2.94909,-1.8369 3.52058,-3.09509 0.4182,-0.92071 0.46472,-1.78776 0.46971,-8.75356 0.003,-4.82537 -0.0945,-7.99826 -0.26052,-8.44095 -0.53173,-1.41764 -1.55915,-2.58461 -2.83553,-3.22065 l -1.28083,-0.63827 h -12.52799 -12.528 l -0.0858,-5.6063 c -0.0796,-5.20526 -0.12549,-5.68083 -0.64114,-6.64806 -0.70633,-1.3249 -1.85925,-2.47848 -3.18664,-3.18845 -1.02912,-0.55045 -1.17456,-0.5572 -12.00238,-0.5572 H 86.82884 l -1.38583,0.77711 c -1.50601,0.8445 -2.8239,2.49483 -3.2674,4.0916 -0.16695,0.6011 -0.25396,9.11339 -0.24769,24.23366 0.0103,24.90995 -0.0245,24.18715 1.25399,26.02392 0.82177,1.18059 1.91549,1.98908 3.37191,2.49254 1.13758,0.39324 2.39795,0.4444 11.12692,0.45169 8.32466,0.007 10.05527,-0.0543 11.21261,-0.39684 z M 88.2147,164.24035 v -22.55119 h 9.44881 9.44883 v 4.78741 4.7874 l -3.96851,0.006 c -3.29411,0.005 -4.13978,0.0835 -4.97638,0.46456 -1.29607,0.59028 -2.7899,2.25066 -3.13143,3.48058 -0.38955,1.40286 -0.35796,15.22271 0.0379,16.55553 0.40497,1.36369 2.26306,3.22179 3.62676,3.62676 0.61081,0.18139 2.55272,0.30799 4.72441,0.30799 l 3.6873,-1e-5 v 5.5433 5.54331 h -9.44882 -9.44882 z m 12.34645,-0.88189 v -6.55118 h 3.27559 3.2756 v 6.55118 6.55118 h -3.2756 -3.27559 z m 13.10237,-0.003 v -6.55365 l 11.90551,0.0655 11.90551,0.0655 0.0673,6.48819 0.0672,6.48819 h -11.97276 -11.97276 z m 216.55967,75.03392 c -0.0677,-0.17728 -0.0937,-8.82625 -0.0579,-19.21995 l 0.0651,-18.89764 h 3.40158 3.40157 v 19.14961 19.1496 l -3.34367,0.0703 c -2.53558,0.0533 -3.3734,-0.008 -3.46673,-0.25196 z m 22.0545,-18.96793 v -19.28943 l 3.59055,0.0699 3.59055,0.0699 v 19.14961 19.14961 l -3.59055,0.0699 -3.59055,0.0699 z M 330.10446,109.68918 V 90.539567 h 3.52756 3.52756 v 19.149613 19.14958 h -3.52756 -3.52756 z m 22.17323,0 V 90.539567 h 3.65354 3.65355 v 19.149613 19.14958 h -3.65355 -3.65354 z"
         style="fill:#000000;fill-opacity:1;stroke-width:0.251969;filter:url(#filter1102)" />
      <path
         style="fill:#ffffff;fill-opacity:1;stroke-width:0.251969"
         d="m 37.726509,344.38207 v -16.50394 h 14.61417 14.61417 v 16.50394 16.50394 h -14.61417 -14.61417 z m 295.055111,0 v -16.50394 h 14.74016 14.74016 v 16.50394 16.50394 H 347.52178 332.78162 Z M 19.584769,305.93226 c -5.37953,-1.05023 -9.6836604,-5.2062 -10.9482394,-10.57139 -0.34007,-1.4428 -0.38289,-16.87 -0.38289,-137.93943 0,-119.151703 0.0467,-136.513061 0.37099,-137.888415 1.169869,-4.961703 4.7986094,-8.768957 9.8262894,-10.3096939 1.46155,-0.447895 7.4627,-0.463295 180.535431,-0.463295 173.07273,0 179.07386,0.0154 180.53543,0.463295 4.95992,1.5199709 8.66925,5.4008629 9.81735,10.2713469 0.33615,1.426054 0.37992,17.321994 0.37992,137.926762 0,121.06943 -0.0428,136.49663 -0.3829,137.93943 -1.23411,5.23598 -5.44977,9.37998 -10.66721,10.48592 -1.42158,0.30133 -27.87807,0.34988 -179.80857,0.33008 C 97.657799,306.16377 20.228919,306.05801 19.584769,305.93226 Z M 324.46666,274.40125 c 5.34995,-1.36829 9.56463,-3.69626 13.10912,-7.24077 4.97819,-4.97819 7.79981,-11.79115 7.80326,-18.8414 v -2.07874 l 5.10236,-0.004 c 5.827,-0.005 7.74279,-0.2978 10.25285,-1.56698 3.21945,-1.62789 6.05536,-5.3676 6.79509,-8.96074 0.38408,-1.86553 0.38269,-45.86732 -0.003,-47.72322 -0.75447,-3.6447 -3.53605,-7.31361 -6.79357,-8.96074 -2.51006,-1.26918 -4.42586,-1.56198 -10.25286,-1.56698 l -5.10034,-0.004 v -20.53543 -20.53544 h 5.49037 c 5.98274,0 7.34072,-0.20031 9.87583,-1.45679 1.90052,-0.94196 4.53425,-3.58373 5.51589,-5.53274 1.56908,-3.1154 1.53529,-2.51891 1.53938,-27.18079 0.003,-14.150307 -0.0909,-22.955706 -0.25207,-23.811026 -0.89827,-4.766153 -5.13807,-9.200962 -9.82995,-10.282098 -0.61977,-0.142814 -3.64969,-0.262431 -6.73315,-0.265817 l -5.6063,-0.0062 v -1.730774 c 0,-0.951927 -0.17303,-2.737753 -0.38453,-3.968504 -2.01948,-11.752443 -11.24719,-20.56616 -23.04194,-22.008186 -2.98641,-0.36512 -242.961801,-0.36392 -245.934471,0.0013 -6.05462,0.743723 -11.7428,3.562167 -15.96027,7.908173 -3.804,3.919939 -6.45715,9.304191 -7.1935,14.598339 -0.38194,2.746071 -0.38494,186.767863 -0.003,189.559423 0.14829,1.08404 0.67673,3.20327 1.17433,4.70937 3.09909,9.3802 11.44221,16.31496 21.38025,17.77118 0.82851,0.1214 56.115031,0.19951 124.451401,0.17583 113.7281,-0.0394 123.08362,-0.0741 124.59843,-0.46148 z M 76.517389,259.50328 c -3.00599,-0.64746 -6.18507,-3.03471 -7.51634,-5.64419 -1.36268,-2.67107 -1.28254,3.33104 -1.28657,-96.36225 -0.003,-66.791859 0.0735,-92.512456 0.27712,-93.480309 0.97195,-4.621088 4.71205,-8.100039 9.41994,-8.762215 2.42205,-0.340666 240.727561,-0.340666 243.149611,0 5.69847,0.801502 9.70079,5.548084 9.70079,11.504751 v 1.087581 l -5.48032,0.003 c -5.98745,0.0033 -6.96234,0.151342 -9.51181,1.444701 -2.98411,1.51386 -5.32361,4.24766 -6.46629,7.556092 l -0.58883,1.704869 v 23.55906 23.55904 l 0.58883,1.70488 c 1.1238,3.25377 3.35279,5.87542 6.36084,7.48134 2.45702,1.31175 3.804,1.52244 9.73319,1.52244 h 5.36439 v 20.53544 20.53543 l -4.72441,0.002 c -5.87684,0.002 -7.43884,0.23601 -10.0249,1.49951 -3.71517,1.81515 -6.5257,5.57732 -7.16064,9.5852 -0.35255,2.22538 -0.35255,44.38879 0,46.61417 0.63494,4.00787 3.44547,7.77004 7.16064,9.5852 2.58606,1.2635 4.14806,1.49714 10.0249,1.49951 l 4.72441,0.002 -0.004,1.5748 c -0.003,0.86614 -0.16794,2.34676 -0.36785,3.29028 -0.90558,4.27374 -4.42724,7.65861 -8.80792,8.46574 -2.24476,0.41361 -242.638771,0.34686 -244.564401,-0.0679 z M 206.31154,198.88871 c 5.72686,-0.97906 12.03041,-3.59878 16.86379,-7.00851 3.46236,-2.44254 8.28854,-7.36057 10.54734,-10.74807 5.29998,-7.94835 7.56723,-15.73045 7.27498,-24.97053 -0.2099,-6.63623 -1.40829,-11.41825 -4.35694,-17.38582 -8.49221,-17.18682 -27.46775,-26.42513 -46.27315,-22.52827 -14.52104,3.00905 -26.81798,14.01504 -31.42073,28.1221 -2.45704,7.53062 -2.68567,16.33021 -0.62338,23.99182 3.08967,11.47838 11.20847,21.38744 21.89125,26.71843 8.15864,4.07137 17.00711,5.36281 26.09684,3.80885 z m -13.24645,-13.36697 c -5.94611,-1.28587 -10.60751,-3.90581 -14.87882,-8.36263 -3.77058,-3.93434 -6.07209,-8.2896 -7.33777,-13.88562 -0.51639,-2.28314 -0.58906,-8.95398 -0.12139,-11.14338 0.17761,-0.8315 0.61519,-2.4189 0.9724,-3.52756 2.81648,-8.74138 9.68685,-15.6118 18.46794,-18.46807 7.40297,-2.40801 16.36822,-1.48214 23.05512,2.38096 14.73876,8.51476 18.90794,27.46462 9.14854,41.5821 -1.57715,2.28142 -5.17899,5.7698 -7.52339,7.28639 -2.58325,1.67109 -5.6897,3.06164 -8.50243,3.80597 -3.41618,0.90402 -9.88669,1.06571 -13.2802,0.33184 z m 10.20472,-8.20293 c 3.5837,-0.82853 6.74392,-2.48042 9.39507,-4.91092 2.90808,-2.66605 4.69537,-5.55106 5.88015,-9.49165 0.89471,-2.97581 0.94646,-7.46137 0.12153,-10.53417 -1.5495,-5.77172 -5.41853,-10.49972 -10.73533,-13.11865 -3.32227,-1.63648 -4.91595,-1.99126 -8.94488,-1.99126 -4.02963,0 -5.62362,0.35496 -8.94488,1.99192 -5.23663,2.58098 -8.89688,6.937 -10.59928,12.61406 -0.57506,1.91766 -0.6825,2.7539 -0.69599,5.41732 -0.0169,3.33465 0.28623,4.98134 1.44525,7.85078 1.00536,2.48901 2.19569,4.25535 4.30671,6.39074 3.06711,3.10253 5.75447,4.65736 9.82677,5.68552 2.24919,0.56787 6.69804,0.61577 8.94488,0.0963 z m -6.04724,-6.19619 c -5.6126,-0.59456 -10.3653,-4.88464 -11.70415,-10.5649 -1.69201,-7.17862 2.77329,-14.58659 9.94228,-16.49431 1.77564,-0.47251 5.27566,-0.47251 7.0513,0 2.23439,0.59459 4.50762,1.89709 6.15794,3.52834 5.44119,5.37832 5.50562,14.16804 0.14318,19.53048 -3.16036,3.16036 -7.00243,4.48642 -11.59055,4.00039 z m -95.22683,14.24021 c 1.02094,-0.30219 1.69768,-0.7342 2.66428,-1.70079 1.93081,-1.93081 2.10586,-2.74398 2.10586,-9.78239 v -5.74954 h 12.25423 c 8.57106,0 12.54759,-0.0879 13.23026,-0.29243 1.3041,-0.39072 2.94909,-1.8369 3.52058,-3.09509 0.4182,-0.92071 0.46472,-1.78776 0.46971,-8.75356 0.003,-4.82537 -0.0945,-7.99826 -0.26052,-8.44095 -0.53173,-1.41764 -1.55915,-2.58461 -2.83553,-3.22065 l -1.28083,-0.63827 h -12.52799 -12.528 l -0.0858,-5.6063 c -0.0796,-5.20525 -0.12549,-5.68082 -0.64114,-6.64805 -0.70633,-1.3249 -1.85925,-2.47848 -3.18664,-3.18845 -1.02912,-0.55045 -1.17456,-0.5572 -12.002381,-0.5572 h -10.96063 l -1.38583,0.77711 c -1.50601,0.8445 -2.8239,2.49483 -3.2674,4.0916 -0.16695,0.6011 -0.25396,9.11338 -0.24769,24.23365 0.0103,24.90995 -0.0245,24.18715 1.25399,26.02392 0.82177,1.18059 1.91549,1.98908 3.37191,2.49254 1.13758,0.39324 2.39795,0.4444 11.12692,0.45169 8.32466,0.007 10.055271,-0.0543 11.212611,-0.39684 z M 81.317059,156.66554 v -22.55118 h 9.44881 9.448831 v 4.7874 4.7874 l -3.968511,0.006 c -3.29411,0.005 -4.13978,0.0835 -4.97638,0.46456 -1.29607,0.59028 -2.7899,2.25066 -3.13143,3.48058 -0.38955,1.40286 -0.35796,15.22271 0.0379,16.55553 0.40497,1.36369 2.26306,3.22179 3.62676,3.62676 0.61081,0.18139 2.55272,0.30799 4.72441,0.30799 l 3.687301,-1e-5 v 5.5433 5.54331 h -9.448821 -9.44882 z m 12.34645,-0.88189 v -6.55118 h 3.27559 3.275601 v 6.55118 6.55118 h -3.275601 -3.27559 z m 13.102371,-0.003 V 149.227 l 11.90551,0.0655 11.90551,0.0655 0.0673,6.48819 0.0672,6.48819 h -11.97276 -11.97276 z m 216.55967,75.03392 c -0.0677,-0.17728 -0.0937,-8.82625 -0.0579,-19.21995 l 0.0651,-18.89764 h 3.40158 3.40157 v 19.14961 19.1496 l -3.34367,0.0703 c -2.53558,0.0533 -3.3734,-0.008 -3.46673,-0.25196 z m 22.0545,-18.96793 v -19.28943 l 3.59055,0.0699 3.59055,0.0699 v 19.14961 19.14961 l -3.59055,0.0699 -3.59055,0.0699 z M 323.20682,102.11437 V 82.964758 h 3.52756 3.52756 v 19.149612 19.14959 h -3.52756 -3.52756 z m 22.17323,0 V 82.964758 h 3.65354 3.65355 v 19.149612 19.14959 h -3.65355 -3.65354 z"
         id="path837" />
    </g>
  </g>
</svg>
