<?xml version="1.0" encoding="UTF-8"?>
<svg width="600" height="600" version="1.1" viewBox="0 0 600 600" xmlns="http://www.w3.org/2000/svg" xmlns:cc="http://creativecommons.org/ns#" xmlns:dc="http://purl.org/dc/elements/1.1/" xmlns:rdf="http://www.w3.org/1999/02/22-rdf-syntax-ns#">
 <metadata>
  <rdf:RDF>
   <cc:Work rdf:about="">
    <dc:format>image/svg+xml</dc:format>
    <dc:type rdf:resource="http://purl.org/dc/dcmitype/StillImage"/>
    <dc:title/>
   </cc:Work>
  </rdf:RDF>
 </metadata>
 <g transform="translate(85.529 127.33)">
  <path d="m214.87 439.45-195.56 0.2525-1.0108-1.2525-1.0107-1.2525-96.092-166.4-6.339-11.604 32.495-56 99.964-173 22.03-38 25.93-45 3.5013-6 11.005-19 209.23-0.50921 1.4056 2.2546 1.4056 2.2546 135.52 235 17.466 30 8.9273 16 4.1308 7 13.947 24 12.362 21.406-103.73 179.59zm-0.4172-179.75h90.514l-26.167-45.5-26.944-46.855-37.062-64.145-0.27972-0.3752-34.255 59.375-55.428 96-0.89351 1.5z" fill="#f9e29e"/>
  <path d="m214.85 439.45-195.58 0.2525-5.9732-9.505-89.957-156-8.3175-14.742 9.3552-16.258 121.97-211 14.395-25 30.022-52 18.505-32 1.1445-0.73469 1.1445-0.73469 207.03-0.03062 78.851 136.5 69.755 121 10.586 18 5.0213 9 16.954 29.096 0.8012 1.9036 11.5 19.302v3.0316l1.7947 0.66667-103.42 179zm-0.19921-179.75h90.595l-3.2206-5.75-3.2206-5.75-43.039-75-13.368-23-23.617-41-3.9592-6.6127-2.4564 3.6127-45.592 79-27.042 47-15.677 26.794v0.70614zm136.9-55h0.5v-1h-1v1zm20-14h0.5v-1h-1v1zm2-13h0.5v-1h-1v1zm13-16h0.5v-1h-1v1zm9-23h0.5v-1h-1v1zm11-30h0.5v-1h-1v1zm2-15h0.5v-1h-1v1zm0-4h0.5v-1h-1v1zm-0.83333-9.3333 0.66666-0.66667-1.3333-1.3333v2.6667z" fill="#facb46"/>
  <path d="m214.85 439.45-195.58 0.2525-5.9732-9.505-89.957-156-8.3175-14.742 9.3552-16.258 121.97-211 14.395-25 33.518-58 15.236-26.521 1.9754 0.65847 102.82 177.86 4e-3 2-43.472 75-31.091 54-15.674 26.794v0.70614h181.21l-0.97906-2.5-43.173-74.895 0.62602-0.62602 8.812 3.1144 76 23.025 18 5.7427 65 19.958 80 24.459 4.2954 2.222-103.42 179-195.58 0.2525zm199.4-179.75h0.5l3.62-4h-1l-3.62 4zm4.9614-4h0.5l4.6973-5h-1l-4.6973 5zm5.5109-6.75 0.50439-1.25-1.0088-2.5v5z" fill="#e2b638"/>
  <path d="m214.85 439.45-195.58 0.2525-5.9732-9.505-89.957-156-8.3175-14.742 9.3552-16.258 121.97-211 14.395-25 33.518-58 15.225-26.5 1.0734 0.0036 2.6477 4.2482 2.6477 4.2482 97.518 169 0.39524 1.5035 0.39523 1.5034-43.339 74.993-31.091 54-15.674 26.794v0.70112l389.77 0.50502-103.39 179-195.58 0.2525z" fill="#538be5"/>
  <path d="m214.45 439.7h-195.18l-5.97-9.5-89.957-156-8.3175-14.742 9.3552-16.258 121.97-211 14.395-25 33.518-58 15.225-26.5 1.0734 0.0036 2.6477 4.2482 2.6477 4.2482 97.518 169 0.39524 1.5035 0.39523 1.5034-43.335 74.993-27.058 47-17.989 31-4.1158 5.8611 2.8933-1.8612 388.5-6e-3 -0.25107 0.658-0.25108 0.658-51.468 89.095-51.468 89.095zm-193.83-1.079 1.0515 0.079 35.897-33.165 8-8.3074-9 8.2246-33.744 31.215-2.0647-1.276 1.3215 2.1382-2.5125 1.0129 1.0515 0.0789zm1.9485-3.921h0.5v-1h-1v1zm1-2h0.5v-1h-1v1zm2-3h0.5v-1h-1v1zm1-2h0.5v-1h-1v1zm2-3h0.5v-1h-1v1zm1-2h0.5v-1h-1v1zm1-2h0.5v-1h-1v1zm2-3h0.5v-1h-1v1zm1-2h0.5v-1h-1v1zm0.88197-2h0.5l1.2361-2h-1l-1.2361 2zm2.118-3h0.5v-1h-1v1zm1-2h0.5v-1h-1v1zm0.88197-2h0.5l1.2361-2h-1l-1.2361 2zm2.118-3h0.5v-1h-1v1zm1-2h0.5v-1h-1v1zm2-3h0.5v-1h-1v1zm30-7.735 8-7.0985 9-9.6386-18 16.856-7 6.9794zm-29 5.735h0.5v-1h-1v1zm1-2h0.5v-1h-1v1zm2-3h0.5v-1h-1v1zm1-2h0.5v-1h-1v1zm0.88197-2h0.5l1.2361-2h-1l-1.2361 2zm2.118-3h0.5v-1h-1v1zm1-2h0.5v-1h-1v1zm2-3h0.5v-1h-1v1zm1-2h0.5v-1h-1v1zm1-2h0.5v-1h-1v1zm34.558-1h0.5l12.884-13h-1l-12.884 13zm-32.558-2h0.5v-1h-1v1zm1-2h0.5v-1h-1v1zm0.88197-2h0.5l1.2361-2h-1l-1.2361 2zm2.118-3h0.5v-1h-1v1zm1-2h0.5v-1h-1v1zm0.88197-2h0.5l1.2361-2h-1l-1.2361 2zm56.132-14.527 16.014-14.973 39.473-36.824v-0.85291l-12.668 11.677-54.832 51.227-4 4.7195zm-54.014 11.527h0.5v-1h-1v1zm1-2h0.5v-1h-1v1zm2-3h0.5v-1h-1v1zm1-2h0.5v-1h-1v1zm1-2h0.5v-1h-1v1zm2-3h0.5v-1h-1v1zm1-2h0.5v-1h-1v1zm0.88197-2h0.5l1.2361-2h-1l-1.2361 2zm2.118-3h0.5v-1h-1v1zm1-2h0.5v-1h-1v1zm2-3h0.5v-1h-1v1zm1-2h0.5v-1h-1v1zm1-2h0.5v-1h-1v1zm2-3h0.5v-1h-1v1zm1-2h0.5v-1h-1v1zm0.88197-2h0.5l1.2361-2h-1l-1.2361 2zm2.118-3h0.5v-1h-1v1zm1-2h0.5v-1h-1v1zm0.88197-2h0.5l1.2361-2h-1l-1.2361 2zm2.118-3h0.5v-1h-1v1zm1-2h0.5v-1h-1v1zm0.88197-2h0.5l1.2361-2h-1l-1.2361 2zm2.118-3h0.5v-1h-1v1zm1-2h0.5v-1h-1v1zm2-3h0.5v-1h-1v1zm1-2h0.5v-1h-1v1zm1-2h0.5v-1h-1v1zm2-3h0.5v-1h-1v1zm82.25-7.7964 8.75-8.0128 19-18.345-36.5 33.495v0.87652zm-81.25 5.7964h0.5v-1h-1v1zm1-2h0.5v-1h-1v1zm2-3h0.5v-1h-1v1zm1-2h0.5v-1h-1v1zm0.88197-2h0.5l1.2361-2h-1l-1.2361 2zm2.118-3h0.5v-1h-1v1zm1-2h0.5v-1h-1v1zm2-3h0.5v-1h-1v1zm1-2h0.5v-1h-1v1zm0.88197-2h0.5l1.2361-2h-1l-1.2361 2zm2.118-3h0.5v-1h-1v1zm0.88197-2h0.5l1.2361-2h-1l-1.2361 2zm2.118-3h0.5v-1h-1v1z" fill="#4bb18f"/>
  <path d="m215 439.7h-194.63l-1.5244-1.75-1.5244-1.75-97.467-169-1.9676-3.4266-1.9676-3.4266 0.41709-1.595 0.41709-1.595 78.03-134.96 52.584-91 13.316-23 5.7242-9 6.3944-12 10.492-18 3.0599-5.5 3.0599-5.5 11.226-19 8.8675-15.658 0.72358 2.1707 1.4379-0.88866 98.891 171.17 3.5223 6.6559-48.316 83.55-10.978 19-30.037 52-3.1916 4.9226 1.5-0.96133 1.5-0.96132 388.5-6e-3 -0.25107 0.658-0.25108 0.658-51.468 89.095-51.468 89.095zm-194.14-1h0.8015l35.897-33.165 8-8.3117-10 9.1019-28.012 25.875-5.8082 5 0.66258-2 0.66259-2-3.0049 3.8823v1.6177zm0.6985-1h-0.5v-1h1v1zm2-5h0.5v-1h-1v1zm0.92963-2h0.5l2.1407-4h-1l-2.1407 4zm3.019-5h0.5l3.1027-6h-1l-3.1027 6zm3.981-7h0.5l2.1407-4h-1l-2.1407 4zm3.019-5h0.5l3.1027-6h-1l-3.1027 6zm4-7h0.5l3.1027-6h-1l-3.1027 6zm4-7h0.5l3.1027-6h-1l-3.1027 6zm31.051-8.735 8-7.0985 9-9.6386-18 16.856-7 6.9794zm-27.07 1.735h0.5l2.1407-4h-1l-2.1407 4zm3.019-5h0.5l3.1027-6h-1l-3.1027 6zm4-7h0.5l3.1027-6h-1l-3.1027 6zm37.609-6h0.5l12.884-13h-1l-12.884 13zm-33.628-1h0.5l2.1407-4h-1l-2.1407 4zm3.019-5h0.5l3.1027-6h-1l-3.1027 6zm4-7h0.5l3.1027-6h-1l-3.1027 6zm56.065-14.527 16.014-14.973 39.473-36.824v-0.85291l-12.668 11.677-54.832 51.227-4 4.7195zm-52.065 7.5268h0.5l3.1027-6h-1l-3.1027 6zm3.981-7h0.5l2.1407-4h-1l-2.1407 4zm3.019-5h0.5l3.1027-6h-1l-3.1027 6zm4-7h0.5l3.1027-6h-1l-3.1027 6zm3.981-7h0.5l2.1407-4h-1l-2.1407 4zm3.019-5h0.5l3.1027-6h-1l-3.1027 6zm4-7h0.5l3.1027-6h-1l-3.1027 6zm4-7h0.5l3.1027-6h-1l-3.1027 6zm4-7h0.5l3.1027-6h-1l-3.1027 6zm3.981-7h0.5l2.1407-4h-1l-2.1407 4zm83.32-8.7964 8.75-8.0128 19-18.345-36.5 33.495v0.87652zm-80.25 3.7964h0.5v-1h-1v1zm0.92963-2h0.5l2.1407-4h-1l-2.1407 4zm3.019-5h0.5l3.1027-6h-1l-3.1027 6zm3.981-7h0.5l2.1407-4h-1l-2.1407 4zm3-5h0.5l2.1407-4h-1l-2.1407 4zm3-5h0.5l2.1407-4h-1l-2.1407 4zm49.233-87.75 0.50439-1.25-1.0088-2.5v5zm-1.0581-5.5208 0.60416-0.60417-1.0504-2.625-0.0789 1.9167-0.0789 1.9167 0.60417-0.60416zm-1-4 0.60416-0.60417-1.0504-2.625-0.0789 1.9167-0.0789 1.9167 0.60417-0.60416zm-0.9375-5.0625 0.66666-0.66667-1.3333-1.3333v2.6667zm-1-4 0.66666-0.66667-1.3333-1.3333v2.6667zm-1-4 0.66666-0.66667-1.3333-1.3333v2.6667zm-1.0625-3.9375 0.60416-0.60417-1.0504-2.625-0.0789 1.9167-0.0789 1.9167 0.60417-0.60416zm-0.9375-5.0625 0.66666-0.66667-1.3333-1.3333v2.6667zm-1.0625-3.9375 0.60416-0.60417-1.0504-2.625-0.0789 1.9167-0.0789 1.9167 0.60417-0.60416zm-1-4 0.60416-0.60417-1.0504-2.625-0.0789 1.9167-0.0789 1.9167 0.60417-0.60416zm-1-4 0.60416-0.60417-1.0504-2.625-0.0789 1.9167-0.0789 1.9167 0.60417-0.60416zm-1-4 0.60416-0.60417-1.0504-2.625-0.0789 1.9167-0.0789 1.9167 0.60417-0.60416zm-1-5 0.60416-0.60417-1.0504-2.625-0.0789 1.9167-0.0789 1.9167 0.60417-0.60416zm-1-4 0.60416-0.60417-1.0504-2.625-0.0789 1.9167-0.0789 1.9167 0.60417-0.60416zm-1-5 0.60416-0.60417-1.0504-2.625-0.0789 1.9167-0.0789 1.9167 0.60417-0.60416zm-1-4 0.60416-0.60417-1.0504-2.625-0.0789 1.9167-0.0789 1.9167 0.60417-0.60416zm-1-4 0.60416-0.60417-1.0504-2.625-0.0789 1.9167-0.0789 1.9167 0.60417-0.60416zm-0.9375-4.0625 0.66666-0.66667-1.3333-1.3333v2.6667zm-1.0625-3.9375 0.60416-0.60417-1.0504-2.625-0.0789 1.9167-0.0789 1.9167 0.60417-0.60416zm-1-5 0.60416-0.60417-1.0504-2.625-0.0789 1.9167-0.0789 1.9167 0.60417-0.60416zm-1-4 0.60416-0.60417-1.0504-2.625-0.0789 1.9167-0.0789 1.9167 0.60417-0.60416zm-1-5 0.60416-0.60417-1.0504-2.625-0.0789 1.9167-0.0789 1.9167 0.60417-0.60416zm-1-4 0.60416-0.60417-1.0504-2.625-0.0789 1.9167-0.0789 1.9167 0.60417-0.60416zm-0.9375-5.0625 0.66666-0.66667-1.3333-1.3333v2.6667zm-1.0625-3.9375 0.60416-0.60417-1.0504-2.625-0.0789 1.9167-0.0789 1.9167 0.60417-0.60416zm-1-4 0.60416-0.60417-1.0504-2.625-0.0789 1.9167-0.0789 1.9167 0.60417-0.60416zm-0.9375-5.0625 0.66666-0.66667-1.3333-1.3333v2.6667zm-1.0625-3.9375 0.60416-0.60417-1.0504-2.625-0.0789 1.9167-0.0789 1.9167 0.60417-0.60416zm-1-4 0.60416-0.60417-1.0504-2.625-0.0789 1.9167-0.0789 1.9167 0.60417-0.60416zm-0.9375-5.0625 0.66666-0.66667-1.3333-1.3333v2.6667zm-1-4 0.66666-0.66667-1.3333-1.3333v2.6667zm-1.0625-3.9375 0.60416-0.60417-1.0504-2.625-0.0789 1.9167-0.0789 1.9167 0.60417-0.60416zm-1-4 0.60416-0.60417-1.0504-2.625-0.0789 1.9167-0.0789 1.9167 0.60417-0.60416zm-0.9375-5.0625 0.66666-0.66667-1.3333-1.3333v2.6667zm-1.0625-3.9375 0.60416-0.60417-1.0504-2.625-0.0789 1.9167-0.0789 1.9167 0.60417-0.60416zm-1-4 0.60416-0.60417-1.0504-2.625-0.0789 1.9167-0.0789 1.9167 0.60417-0.60416zm-0.9375-5.0625 0.66666-0.66667-1.3333-1.3333v2.6667zm-1-4 0.66666-0.66667-1.3333-1.3333v2.6667zm-1.0625-3.9375 0.60416-0.60417-1.0504-2.625-0.0789 1.9167-0.0789 1.9167 0.60417-0.60416zm-1-4 0.60416-0.60417-1.0504-2.625-0.0789 1.9167-0.0789 1.9167 0.60417-0.60416zm-0.9375-5.0625 0.66666-0.66667-1.3333-1.3333v2.6667zm-1.0625-3.9375 0.60416-0.60417-1.0504-2.625-0.0789 1.9167-0.0789 1.9167 0.60417-0.60416zm-1-4 0.60416-0.60417-1.0504-2.625-0.0789 1.9167-0.0789 1.9167 0.60417-0.60416zm-0.9375-5.0625 0.66666-0.66667-1.3333-1.3333v2.6667zm-1.0625-3.9375 0.60416-0.60417-1.0504-2.625-0.0789 1.9167-0.0789 1.9167 0.60417-0.60416zm-1-4 0.60416-0.60417-1.0504-2.625-0.0789 1.9167-0.0789 1.9167 0.60417-0.60416zm-1-5 0.60416-0.60417-1.0504-2.625-0.0789 1.9167-0.0789 1.9167 0.60417-0.60417zm-1-4 0.60416-0.60417-1.0504-2.625-0.0789 1.9167-0.0789 1.9167 0.60417-0.60417zm-0.9375-5.0625 0.66666-0.66667-1.3333-1.3333v2.6667zm-1.0625-3.9375 0.60416-0.60417-1.0504-2.625-0.0789 1.9167-0.0789 1.9167 0.60417-0.60417zm-0.9375-5.0625 0.66666-0.66667-1.3333-1.3333v2.6667zm-1.0625-3.9375 0.60416-0.60417-1.0504-2.625-0.0789 1.9167-0.0789 1.9167 0.60417-0.60417zm-1-4 0.60416-0.60417-1.0504-2.625-0.0789 1.9167-0.0789 1.9167 0.60417-0.60417zm-1-5 0.60416-0.60417-1.0504-2.625-0.0789 1.9167-0.0789 1.9167 0.60417-0.60417zm-1-4 0.60416-0.60417-1.0504-2.625-0.0789 1.9167-0.0789 1.9167 0.60417-0.60417zm-1-4 0.60416-0.60417-1.0504-2.625-0.0789 1.9167-0.0789 1.9167 0.60417-0.60417zm-0.9375-5.0625 0.66666-0.66667-1.3333-1.3333v2.6667zm-1.0625-3.9375 0.60416-0.60417-1.0504-2.625-0.0789 1.9167-0.0789 1.9167 0.60417-0.60417z" fill="#2970e8"/>
  <path d="m20.776 436.28-1.3484 2.5736-2.0974-2.6472-97.475-169-1.9676-3.4266-1.9676-3.4266 0.84067-3.2147 52.033-89.932 78.569-136 13.322-23 5.7242-9 6.3944-12 10.492-18 3.0599-5.5 3.0599-5.5 11.226-19 8.8675-15.658 0.72358 2.1707 1.4379-0.88866 98.891 171.17 3.5223 6.6559-48.316 83.55-10.978 19-30.037 52-3.0584 5 1.3834-1.25 1.3834-1.25 89.1 0.0336-14.097 13.466-18.756 17-31.147 28.926-14.054 13.074-59.991 56-17.872 16-30.083 27.861-6.7509 6.1387 1.1606-2.25 1.1606-2.25h-1.0065l-1.3484 2.5736zm2.7332-3.5736h0.5l3.1027-6h-1l-3.1027 6zm4-7h0.5l3.1027-6h-1l-3.1027 6zm3.981-7h0.5l2.1407-4h-1l-2.1407 4zm3.019-5h0.5l3.1027-6h-1l-3.1027 6zm4.2913-7.5 1.04-1 6.545-12-1.0124 1-1.0124 1-6.6001 12zm7.6897-13.5h0.5l2.1407-4h-1l-2.1407 4zm3.019-5h0.5l3.1027-6h-1l-3.1027 6zm4-7h0.5l3.1027-6h-1l-3.1027 6zm3.981-7h0.5l2.1407-4h-1l-2.1407 4zm3.019-5h0.5l3.1027-6h-1l-3.1027 6zm3.9048-7h0.4715l9.443-16.5 0.85009-1.5h-0.94299l-9.443 16.5-0.85009 1.5zm11.095-19h0.5l3.1027-6h-1l-3.1027 6zm4.2538-7.5 1.0316-1 2.7975-5 2.7975-5-1.0316 1-1.0316 1-2.7975 5-2.7975 5zm6.7462-11.5h0.5l3.1027-6h-1l-3.1027 6zm4-7h0.5l3.1027-6h-1l-3.1027 6zm4-7h0.5l3.1027-6h-1l-3.1027 6zm4.2538-7.5 1.0316-1 5.595-10-1.0316 1-1.0316 1-2.7975 5-2.7975 5zm6.7975-11.5h0.5v-1h-1v1zm0.92963-2h0.5l2.1407-4h-1l-2.1407 4zm3.019-5h0.5l3.1027-6h-1l-3.1027 6zm3.981-7h0.5l2.1407-4h-1l-2.1407 4zm3-5h0.5l2.1407-4h-1l-2.1407 4zm3-5h0.5l2.1407-4h-1l-2.1407 4zm49.233-87.75 0.50439-1.25-1.0088-2.5v5zm-1.0581-5.5208 0.60416-0.60417-1.0504-2.625-0.0789 1.9167-0.0789 1.9167 0.60417-0.60416zm-1-4 0.60416-0.60417-1.0504-2.625-0.0789 1.9167-0.0789 1.9167 0.60417-0.60416zm-0.9375-5.0625 0.66666-0.66667-1.3333-1.3333v2.6667zm-1-4 0.66666-0.66667-1.3333-1.3333v2.6667zm-1-4 0.66666-0.66667-1.3333-1.3333v2.6667zm-1.0625-3.9375 0.60416-0.60417-1.0504-2.625-0.0789 1.9167-0.0789 1.9167 0.60417-0.60416zm-0.9375-5.0625 0.66666-0.66667-1.3333-1.3333v2.6667zm-1.0625-3.9375 0.60416-0.60417-1.0504-2.625-0.0789 1.9167-0.0789 1.9167 0.60417-0.60416zm-1-4 0.60416-0.60417-1.0504-2.625-0.0789 1.9167-0.0789 1.9167 0.60417-0.60416zm-1-4 0.60416-0.60417-1.0504-2.625-0.0789 1.9167-0.0789 1.9167 0.60417-0.60416zm-1-4 0.60416-0.60417-1.0504-2.625-0.0789 1.9167-0.0789 1.9167 0.60417-0.60416zm-1-5 0.60416-0.60417-1.0504-2.625-0.0789 1.9167-0.0789 1.9167 0.60417-0.60416zm-1-4 0.60416-0.60417-1.0504-2.625-0.0789 1.9167-0.0789 1.9167 0.60417-0.60416zm-1-5 0.60416-0.60417-1.0504-2.625-0.0789 1.9167-0.0789 1.9167 0.60417-0.60416zm-1-4 0.60416-0.60417-1.0504-2.625-0.0789 1.9167-0.0789 1.9167 0.60417-0.60416zm-1-4 0.60416-0.60417-1.0504-2.625-0.0789 1.9167-0.0789 1.9167 0.60417-0.60416zm-0.9375-4.0625 0.66666-0.66667-1.3333-1.3333v2.6667zm-1.0625-3.9375 0.60416-0.60417-1.0504-2.625-0.0789 1.9167-0.0789 1.9167 0.60417-0.60416zm-1-5 0.60416-0.60417-1.0504-2.625-0.0789 1.9167-0.0789 1.9167 0.60417-0.60416zm-1-4 0.60416-0.60417-1.0504-2.625-0.0789 1.9167-0.0789 1.9167 0.60417-0.60416zm-1-5 0.60416-0.60417-1.0504-2.625-0.0789 1.9167-0.0789 1.9167 0.60417-0.60416zm-1-4 0.60416-0.60417-1.0504-2.625-0.0789 1.9167-0.0789 1.9167 0.60417-0.60416zm-0.9375-5.0625 0.66666-0.66667-1.3333-1.3333v2.6667zm-1.0625-3.9375 0.60416-0.60417-1.0504-2.625-0.0789 1.9167-0.0789 1.9167 0.60417-0.60416zm-1-4 0.60416-0.60417-1.0504-2.625-0.0789 1.9167-0.0789 1.9167 0.60417-0.60416zm-0.9375-5.0625 0.66666-0.66667-1.3333-1.3333v2.6667zm-1.0625-3.9375 0.60416-0.60417-1.0504-2.625-0.0789 1.9167-0.0789 1.9167 0.60417-0.60416zm-1-4 0.60416-0.60417-1.0504-2.625-0.0789 1.9167-0.0789 1.9167 0.60417-0.60416zm-0.9375-5.0625 0.66666-0.66667-1.3333-1.3333v2.6667zm-1-4 0.66666-0.66667-1.3333-1.3333v2.6667zm-1.0625-3.9375 0.60416-0.60417-1.0504-2.625-0.0789 1.9167-0.0789 1.9167 0.60417-0.60416zm-1-4 0.60416-0.60417-1.0504-2.625-0.0789 1.9167-0.0789 1.9167 0.60417-0.60416zm-0.9375-5.0625 0.66666-0.66667-1.3333-1.3333v2.6667zm-1.0625-3.9375 0.60416-0.60417-1.0504-2.625-0.0789 1.9167-0.0789 1.9167 0.60417-0.60416zm-1-4 0.60416-0.60417-1.0504-2.625-0.0789 1.9167-0.0789 1.9167 0.60417-0.60416zm-0.9375-5.0625 0.66666-0.66667-1.3333-1.3333v2.6667zm-1-4 0.66666-0.66667-1.3333-1.3333v2.6667zm-1.0625-3.9375 0.60416-0.60417-1.0504-2.625-0.0789 1.9167-0.0789 1.9167 0.60417-0.60416zm-1-4 0.60416-0.60417-1.0504-2.625-0.0789 1.9167-0.0789 1.9167 0.60417-0.60416zm-0.9375-5.0625 0.66666-0.66667-1.3333-1.3333v2.6667zm-1.0625-3.9375 0.60416-0.60417-1.0504-2.625-0.0789 1.9167-0.0789 1.9167 0.60417-0.60416zm-1-4 0.60416-0.60417-1.0504-2.625-0.0789 1.9167-0.0789 1.9167 0.60417-0.60416zm-0.9375-5.0625 0.66666-0.66667-1.3333-1.3333v2.6667zm-1.0625-3.9375 0.60416-0.60417-1.0504-2.625-0.0789 1.9167-0.0789 1.9167 0.60417-0.60416zm-1-4 0.60416-0.60417-1.0504-2.625-0.0789 1.9167-0.0789 1.9167 0.60417-0.60416zm-1-5 0.60416-0.60417-1.0504-2.625-0.0789 1.9167-0.0789 1.9167 0.60417-0.60417zm-1-4 0.60416-0.60417-1.0504-2.625-0.0789 1.9167-0.0789 1.9167 0.60417-0.60417zm-0.9375-5.0625 0.66666-0.66667-1.3333-1.3333v2.6667zm-1.0625-3.9375 0.60416-0.60417-1.0504-2.625-0.0789 1.9167-0.0789 1.9167 0.60417-0.60417zm-0.9375-5.0625 0.66666-0.66667-1.3333-1.3333v2.6667zm-1.0625-3.9375 0.60416-0.60417-1.0504-2.625-0.0789 1.9167-0.0789 1.9167 0.60417-0.60417zm-1-4 0.60416-0.60417-1.0504-2.625-0.0789 1.9167-0.0789 1.9167 0.60417-0.60417zm-1-5 0.60416-0.60417-1.0504-2.625-0.0789 1.9167-0.0789 1.9167 0.60417-0.60417zm-1-4 0.60416-0.60417-1.0504-2.625-0.0789 1.9167-0.0789 1.9167 0.60417-0.60417zm-1-4 0.60416-0.60417-1.0504-2.625-0.0789 1.9167-0.0789 1.9167 0.60417-0.60417zm-0.9375-5.0625 0.66666-0.66667-1.3333-1.3333v2.6667zm-1.0625-3.9375 0.60416-0.60417-1.0504-2.625-0.0789 1.9167-0.0789 1.9167 0.60417-0.60417z" fill="#2869d8"/>
  <path d="m19.562 438.48-0.21722 0.27416-1.0077-1.2742-1.0077-1.2742-97.475-169-1.9676-3.4266-1.9676-3.4266 0.84067-3.2147 52.033-89.932 78.569-136 13.322-23 5.7242-9 6.3944-12 10.492-18 3.0599-5.5 3.0599-5.5 11.226-19 8.8675-15.658 0.72358 2.1707 1.4379-0.88866 98.891 171.17 3.5223 6.6559-48.316 83.55-10.978 19-29.807 51.56-10.56 17.44-19.073 33-75.568 131zm149.16-259.52 0.50439-1.25-1.0088-2.5v5zm-1.0581-5.5208 0.60416-0.60417-1.0504-2.625-0.0789 1.9167-0.0789 1.9167 0.60417-0.60416zm-1-4 0.60416-0.60417-1.0504-2.625-0.0789 1.9167-0.0789 1.9167 0.60417-0.60416zm-0.9375-5.0625 0.66666-0.66667-1.3333-1.3333v2.6667zm-1-4 0.66666-0.66667-1.3333-1.3333v2.6667zm-1-4 0.66666-0.66667-1.3333-1.3333v2.6667zm-1.0625-3.9375 0.60416-0.60417-1.0504-2.625-0.0789 1.9167-0.0789 1.9167 0.60417-0.60416zm-0.9375-5.0625 0.66666-0.66667-1.3333-1.3333v2.6667zm-1.0625-3.9375 0.60416-0.60417-1.0504-2.625-0.0789 1.9167-0.0789 1.9167 0.60417-0.60416zm-1-4 0.60416-0.60417-1.0504-2.625-0.0789 1.9167-0.0789 1.9167 0.60417-0.60416zm-1-4 0.60416-0.60417-1.0504-2.625-0.0789 1.9167-0.0789 1.9167 0.60417-0.60416zm-1-4 0.60416-0.60417-1.0504-2.625-0.0789 1.9167-0.0789 1.9167 0.60417-0.60416zm-1-5 0.60416-0.60417-1.0504-2.625-0.0789 1.9167-0.0789 1.9167 0.60417-0.60416zm-1-4 0.60416-0.60417-1.0504-2.625-0.0789 1.9167-0.0789 1.9167 0.60417-0.60416zm-1-5 0.60416-0.60417-1.0504-2.625-0.0789 1.9167-0.0789 1.9167 0.60417-0.60416zm-1-4 0.60416-0.60417-1.0504-2.625-0.0789 1.9167-0.0789 1.9167 0.60417-0.60416zm-1-4 0.60416-0.60417-1.0504-2.625-0.0789 1.9167-0.0789 1.9167 0.60417-0.60416zm-0.9375-4.0625 0.66666-0.66667-1.3333-1.3333v2.6667zm-1.0625-3.9375 0.60416-0.60417-1.0504-2.625-0.0789 1.9167-0.0789 1.9167 0.60417-0.60416zm-1-5 0.60416-0.60417-1.0504-2.625-0.0789 1.9167-0.0789 1.9167 0.60417-0.60416zm-1-4 0.60416-0.60417-1.0504-2.625-0.0789 1.9167-0.0789 1.9167 0.60417-0.60416zm-1-5 0.60416-0.60417-1.0504-2.625-0.0789 1.9167-0.0789 1.9167 0.60417-0.60416zm-1-4 0.60416-0.60417-1.0504-2.625-0.0789 1.9167-0.0789 1.9167 0.60417-0.60416zm-0.9375-5.0625 0.66666-0.66667-1.3333-1.3333v2.6667zm-1.0625-3.9375 0.60416-0.60417-1.0504-2.625-0.0789 1.9167-0.0789 1.9167 0.60417-0.60416zm-1-4 0.60416-0.60417-1.0504-2.625-0.0789 1.9167-0.0789 1.9167 0.60417-0.60416zm-0.9375-5.0625 0.66666-0.66667-1.3333-1.3333v2.6667zm-1.0625-3.9375 0.60416-0.60417-1.0504-2.625-0.0789 1.9167-0.0789 1.9167 0.60417-0.60416zm-1-4 0.60416-0.60417-1.0504-2.625-0.0789 1.9167-0.0789 1.9167 0.60417-0.60416zm-0.9375-5.0625 0.66666-0.66667-1.3333-1.3333v2.6667zm-1-4 0.66666-0.66667-1.3333-1.3333v2.6667zm-1.0625-3.9375 0.60416-0.60417-1.0504-2.625-0.0789 1.9167-0.0789 1.9167 0.60417-0.60416zm-1-4 0.60416-0.60417-1.0504-2.625-0.0789 1.9167-0.0789 1.9167 0.60417-0.60416zm-0.9375-5.0625 0.66666-0.66667-1.3333-1.3333v2.6667zm-1.0625-3.9375 0.60416-0.60417-1.0504-2.625-0.0789 1.9167-0.0789 1.9167 0.60417-0.60416zm-1-4 0.60416-0.60417-1.0504-2.625-0.0789 1.9167-0.0789 1.9167 0.60417-0.60416zm-0.9375-5.0625 0.66666-0.66667-1.3333-1.3333v2.6667zm-1-4 0.66666-0.66667-1.3333-1.3333v2.6667zm-1.0625-3.9375 0.60416-0.60417-1.0504-2.625-0.0789 1.9167-0.0789 1.9167 0.60417-0.60416zm-1-4 0.60416-0.60417-1.0504-2.625-0.0789 1.9167-0.0789 1.9167 0.60417-0.60416zm-0.9375-5.0625 0.66666-0.66667-1.3333-1.3333v2.6667zm-1.0625-3.9375 0.60416-0.60417-1.0504-2.625-0.0789 1.9167-0.0789 1.9167 0.60417-0.60416zm-1-4 0.60416-0.60417-1.0504-2.625-0.0789 1.9167-0.0789 1.9167 0.60417-0.60416zm-0.9375-5.0625 0.66666-0.66667-1.3333-1.3333v2.6667zm-1.0625-3.9375 0.60416-0.60417-1.0504-2.625-0.0789 1.9167-0.0789 1.9167 0.60417-0.60416zm-1-4 0.60416-0.60417-1.0504-2.625-0.0789 1.9167-0.0789 1.9167 0.60417-0.60416zm-1-5 0.60416-0.60417-1.0504-2.625-0.0789 1.9167-0.0789 1.9167 0.60417-0.60417zm-1-4 0.60416-0.60417-1.0504-2.625-0.0789 1.9167-0.0789 1.9167 0.60417-0.60417zm-0.9375-5.0625 0.66666-0.66667-1.3333-1.3333v2.6667zm-1.0625-3.9375 0.60416-0.60417-1.0504-2.625-0.0789 1.9167-0.0789 1.9167 0.60417-0.60417zm-0.9375-5.0625 0.66666-0.66667-1.3333-1.3333v2.6667zm-1.0625-3.9375 0.60416-0.60417-1.0504-2.625-0.0789 1.9167-0.0789 1.9167 0.60417-0.60417zm-1-4 0.60416-0.60417-1.0504-2.625-0.0789 1.9167-0.0789 1.9167 0.60417-0.60417zm-1-5 0.60416-0.60417-1.0504-2.625-0.0789 1.9167-0.0789 1.9167 0.60417-0.60417zm-1-4 0.60416-0.60417-1.0504-2.625-0.0789 1.9167-0.0789 1.9167 0.60417-0.60417zm-1-4 0.60416-0.60417-1.0504-2.625-0.0789 1.9167-0.0789 1.9167 0.60417-0.60417zm-0.9375-5.0625 0.66666-0.66667-1.3333-1.3333v2.6667zm-1.0625-3.9375 0.60416-0.60417-1.0504-2.625-0.0789 1.9167-0.0789 1.9167 0.60417-0.60417z" fill="#0aa15d"/>
  <path d="m169.52 179.5-0.22144 0.29663-1.353-7.5933-11.93-51-6.9495-30-22.9-99-14.222-63-1.1102-4 2.0476 2 100.45 174 0.0646 2.2143-43.65 75.786z" fill="#079055"/>
 </g>
</svg>
